<svg width="44" height="44" viewBox="0 0 44 44" fill="none" xmlns="http://www.w3.org/2000/svg">
  <rect x="3" y="3" width="38" height="38" rx="12" fill="#111827"/>
  <path d="M14 13.5H30C31.3807 13.5 32.5 14.6193 32.5 16V18.15C30.9865 18.4838 29.85 19.8329 29.85 21.45C29.85 23.0671 30.9865 24.4162 32.5 24.75V28C32.5 29.3807 31.3807 30.5 30 30.5H14C12.6193 30.5 11.5 29.3807 11.5 28V24.75C13.0135 24.4162 14.15 23.0671 14.15 21.45C14.15 19.8329 13.0135 18.4838 11.5 18.15V16C11.5 14.6193 12.6193 13.5 14 13.5Z" fill="#F9FAFB"/>
  <path d="M20.25 17.25L25.9 21.3L20.25 25.35V17.25Z" fill="#2563EB"/>
  <path d="M17.75 13.5V30.5" stroke="#D1D5DB" stroke-width="1.5" stroke-dasharray="2 2"/>
</svg>
